# AST/ASF file generated using VICON BodyLanguage
# -----------------------------------------------
:version 1.10
:name VICON
:units
  mass 1.0
  length 0.45
  angle deg
:documentation
   .ast/.asf automatically generated from VICON data using
   VICON BodyBuilder and BodyLanguage model FoxedUp or BRILLIANT.MOD
:root
   order TX TY TZ RX RY RZ
   axis XYZ
   position 0 0 0  
   orientation 0 0 0 
:bonedata
  begin
     id 1 
     name lhipjoint
     direction 0.521452 -0.77106 0.36545 
     length 2.0933 
     axis 0 0 0  XYZ
  end
  begin
     id 2 
     name lfemur
     direction 0.34202 -0.939693 0  
     length 6.83441  
     axis 0 0 20  XYZ
    dof rx ry rz
    limits (-160.0 20.0)
           (-70.0 70.0)
           (-60.0 70.0)
  end
  begin
     id 3 
     name ltibia
     direction 0.34202 -0.939693 0   
     length 7.28749   
     axis 0 0 20   XYZ
    dof rx
    limits (-10.0 170.0)
  end
  begin
     id 4 
     name lfoot
     direction 0.100608 -0.276418 0.955757   
     length 1.52195   
     axis -90 7.62852e-016 20   XYZ
    dof rx rz
    limits (-45.0 90.0)
           (-70.0 20.0)
  end
  begin
     id 5 
     name ltoes
     direction 1.53558e-011 -4.21907e-011 1   
     length 0.770459   
     axis -90 7.62852e-016 20   XYZ
    dof rx
    limits (-90.0 20.0)
  end
  begin
     id 6 
     name rhipjoint
     direction -0.488071 -0.788702 0.373812   
     length 2.04648  
     axis 0 0 0  XYZ 
  end
  begin
     id 7 
     name rfemur
     direction -0.34202 -0.939693 0   
     length 6.92583   
     axis 0 0 -20   XYZ
    dof rx ry rz
    limits (-160.0 20.0)
           (-70.0 70.0)
           (-70.0 60.0)
  end
  begin
     id 8 
     name rtibia
     direction -0.34202 -0.939693 0   
     length 7.41043   
     axis 0 0 -20   XYZ
    dof rx
    limits (-10.0 170.0)
 end
 begin
     id 9 
     name rfoot
     direction -0.0784433 -0.215521 0.973343   
     length 1.67708  
     axis -90 -7.62852e-016 -20   XYZ
    dof rx rz
    limits (-45.0 90.0)
           (-20.0 70.0)
  end
  begin
     id 10 
     name rtoes
     direction -1.53551e-011 -4.21842e-011 1   
     length 0.849787   
     axis -90 -7.62852e-016 -20   XYZ
    dof rx
    limits (-90.0 20.0)
  end
  begin
     id 11 
     name lowerback
     direction -0.0122332 0.997575 -0.0685192   
     length 1.98724   
     axis 0 0 0   XYZ
    dof rx ry rz
    limits (-20.0 45.0)
           (-30.0 30.0)
           (-30.0 30.0)
  end
  begin
     id 12 
     name upperback
     direction 0.0182347 0.999724 -0.0148421   
     length 1.99029   
     axis 0 0 0   XYZ
    dof rx ry rz
    limits (-20.0 45.0)
           (-30.0 30.0)
           (-30.0 30.0)
  end
  begin
     id 13 
     name thorax
     direction 0.0242908 0.99956 0.0170184   
     length 1.99573   
     axis 0 0 0   XYZ
    dof rx ry rz
    limits (-20.0 45.0)
           (-30.0 30.0)
           (-30.0 30.0)
  end
  begin
     id 14 
     name lowerneck
     direction 0.0654488 0.985533 0.156338   
     length 1.4285   
     axis 0 0 0   XYZ
    dof rx ry rz
    limits (-20.0 45.0)
           (-30.0 30.0)
           (-30.0 30.0)
  end
  begin
     id 15 
     name upperneck
     direction -0.02953 0.998556 -0.0448842   
     length 1.44709   
     axis 0 0 0   XYZ
    dof rx ry rz
    limits (-20.0 45.0)
           (-30.0 30.0)
           (-30.0 30.0)
  end
  begin
     id 16
     name head
     direction -0.0155588 0.999386 -0.0314063  
     length 1.44689  
     axis 0 0 0   XYZ
    dof rx ry rz
    limits (-20.0 45.0)
           (-30.0 30.0)
           (-30.0 30.0)
  end
  begin
     id 17 
     name lclavicle
     direction 0.968229 0.236071 -0.0824755  
     length 3.60593  
     axis 0 0 0   XYZ
    dof ry rz
    limits (-20.0 10.0)
           (0.0 20.0)
  end
  begin
     id 18 
     name lhumerus
     direction 1 -4.48968e-011 7.8138e-029   
     length 5.06035   
     axis 180 -30 -90   XYZ
    dof rx ry rz
    limits (-60.0 90.0)
           (-90.0 90.0)
           (-90.0 90.0)
  end
  begin
     id 19
     name lradius
     direction 1 -4.48967e-011 9.02887e-028   
     length 3.1478   
     axis 180 -30 -90   XYZ
    dof rx
    limits (-10.0 170.0)
  end
  begin
     id 20
     name lwrist
     direction 1 -4.48961e-011 7.20928e-028   
     length 1.5739   
     axis -5.52449e-016 90 90   XYZ
    dof ry
    limits (-180.0 0.0)
 end
  begin
     id 21 
     name lhand
     direction 1 -4.48972e-011 1.44186e-027   
     length 0.606747   
     axis -9.20027e-016 90 90   XYZ
    dof rx rz
    limits (-90.0 90.0)
           (-45.0 45.0)
  end
  begin
     id 22 
     name lfingers
     direction 1 -4.48943e-011 2.88371e-027   
     length 0.489175   
     axis -1.84005e-015 90 90   XYZ
    dof rx
    limits (0.0 90.0)
  end
  begin
     id 23
     name lthumb
     direction 0.707107 -6.34917e-011 0.707107   
     length 0.70236   
     axis -90 45 2.85299e-015   XYZ
    dof rx rz
    limits (-45.0 45.0)
           (-45.0 45.0)
  end
  begin
     id 24 
     name rclavicle
     direction -0.978165 0.207816 0.0022268   
     length 3.35425  
     axis 0 0 0   XYZ 
    dof ry rz
    limits (-10.0 20.0)
           (-20.0 0.0)
  end
  begin
     id 25 
     name rhumerus
     direction -1 -4.48964e-011 -4.02159e-027  
     length 5.12273   
     axis 180 30 90   XYZ
    dof rx ry rz
    limits (-90.0 60.0)
           (-90.0 90.0)
           (-90.0 90.0)
  end
  begin
     id 26 
     name rradius
     direction -1 -4.48966e-011 1.62746e-027   
     length 3.422   
     axis 180 30 90   XYZ
    dof rx
    limits (-10.0 170.0)
  end
  begin
     id 27 
     name rwrist
     direction -1 -4.4896e-011 7.20928e-028   
     length 1.711   
     axis -5.52449e-016 -90 -90   XYZ
    dof ry
    limits (-180.0 0.0)
  end
  begin
     id 28
     name rhand
     direction -1 -4.48979e-011 1.44186e-027   
     length 0.704599   
     axis -9.20027e-016 -90 -90   XYZ
    dof rx rz
    limits (-90.0 90.0)
           (-45.0 45.0)
  end
  begin
     id 29
     name rfingers
     direction -1 -4.48962e-011 2.88371e-027   
     length 0.568066   
     axis -1.84005e-015 -90 -90   XYZ
    dof rx
    limits (0.0 90.0)
  end
  begin
     id 30
     name rthumb
     direction -0.707107 -6.34949e-011 0.707107   
     length 0.815633   
     axis -90 -45 -2.85299e-015   XYZ
    dof rx rz
    limits (-45.0 45.0)
           (-45.0 45.0)
  end
:hierarchy
  begin
    root lhipjoint rhipjoint lowerback
    lhipjoint lfemur
    lfemur ltibia
    ltibia lfoot
    lfoot ltoes
    rhipjoint rfemur
    rfemur rtibia
    rtibia rfoot
    rfoot rtoes
    lowerback upperback
    upperback thorax
    thorax lowerneck lclavicle rclavicle
    lowerneck upperneck
    upperneck head
    lclavicle lhumerus
    lhumerus lradius
    lradius lwrist
    lwrist lhand lthumb
    lhand lfingers
    rclavicle rhumerus
    rhumerus rradius
    rradius rwrist
    rwrist rhand rthumb
    rhand rfingers
  end

#!OML:ASF E:\id_vita\Project 1\Capture day 1\Session 1\Male1.ASF
:FULLY-SPECIFIED
:DEGREES
57
root -8.0012 27.3867 -0.224987 -122.399 89.3794 -126.915
lowerback -5.46213 -0.950214 -2.53701
upperback 0.851661 -1.10753 0.375325
thorax 4.00091 -0.611978 1.71378
lowerneck -9.54166 0.630811 2.56678
upperneck 16.6024 0.834934 -1.33323
head 6.64287 0.517439 -0.773567
rclavicle 4.93234e-015 -1.59028e-015
rhumerus -30.9931 -10.5394 -83.0951
rradius 21.2784
rwrist 4.83898
rhand -22.2688 43.6752
rfingers 7.12502
rthumb 4.14922 13.7359
lclavicle 4.93234e-015 -1.59028e-015
lhumerus -20.3696 13.3101 82.1532
lradius 13.4726
lwrist -15.2662
lhand -13.7923 42.6112
lfingers 7.12502
lthumb 12.3294 72.2277
rfemur -8.63317 2.80445 18.0949
rtibia 24.4908
rfoot -17.369 -13.3271
rtoes -9.6128
lfemur -10.1883 0.0624954 -17.2925
ltibia 25.1261
lfoot -22.6176 2.6059
ltoes -3.62188
58
root -8.00163 27.3895 -0.225241 -118.154 89.4069 -122.709
lowerback -5.51713 -0.94149 -2.51919
upperback 0.850216 -1.09538 0.36974
thorax 4.02938 -0.605761 1.69832
lowerneck -9.56118 0.607083 2.57877
upperneck 16.5722 0.808356 -1.39028
head 6.63626 0.499892 -0.796079
rclavicle -8.33653e-015 6.55989e-015
rhumerus -30.9781 -10.4958 -83.1292
rradius 21.3252
rwrist 4.80251
rhand -21.8899 43.816
rfingers 7.12502
rthumb 4.51512 13.8841
lclavicle -8.33653e-015 6.55989e-015
lhumerus -20.4382 13.3502 82.0799
lradius 13.5163
lwrist -15.2183
lhand -13.7283 42.7634
lfingers 7.12502
lthumb 12.3911 72.3762
rfemur -8.70152 2.80493 18.0889
rtibia 24.4959
rfoot -17.3282 -13.3401
rtoes -9.77036
lfemur -10.2119 0.0409496 -17.2986
ltibia 25.1165
lfoot -22.6328 2.64616
ltoes -3.29306
59
root -8.00122 27.3878 -0.22209 -118.694 89.364 -123.193
lowerback -5.52616 -0.943359 -2.50389
upperback 0.88797 -1.09811 0.362814
thorax 4.07334 -0.607614 1.68186
lowerneck -9.61108 0.574082 2.63481
upperneck 16.5958 0.75845 -1.4248
head 6.65183 0.476251 -0.820641
rclavicle 2.96935e-015 2.78299e-015
rhumerus -30.9802 -10.4704 -83.1826
rradius 21.3851
rwrist 4.76298
rhand -21.9703 43.8161
rfingers 7.12502
rthumb 4.43746 13.8826
lclavicle 2.96935e-015 2.78299e-015
lhumerus -20.5043 13.1677 82.0514
lradius 13.5878
lwrist -14.9922
lhand -13.8381 43.0104
lfingers 7.12502
lthumb 12.2852 72.6295
rfemur -8.64128 2.91601 18.1491
rtibia 24.493
rfoot -17.3119 -13.4424
rtoes -9.5843
lfemur -10.1498 0.10713 -17.245
ltibia 25.1138
lfoot -22.6438 2.61319
ltoes -3.3864
60
root -8.00237 27.3858 -0.219253 -112.047 89.3567 -116.518
lowerback -5.51974 -0.885213 -2.48187
upperback 0.885605 -1.02189 0.353237
thorax 4.06291 -0.568996 1.66666
lowerneck -9.71254 0.533618 2.71623
upperneck 16.7184 0.689277 -1.42457
head 6.70772 0.448968 -0.839989
rclavicle 8.77137e-015 -2.38542e-015
rhumerus -31.0389 -10.5875 -83.1607
rradius 21.3915
rwrist 4.83514
rhand -22.2729 43.9134
rfingers 7.12502
rthumb 4.14526 13.974
lclavicle 8.77137e-015 -2.38542e-015
lhumerus -20.6061 13.1873 81.9639
lradius 13.4987
lwrist -15.066
lhand -14.0465 42.7193
lfingers 7.12502
lthumb 12.0842 72.3504
rfemur -8.62416 2.93024 18.1975
rtibia 24.4774
rfoot -17.3045 -13.3868
rtoes -9.47409
lfemur -10.1199 0.194811 -17.1959
ltibia 25.1178
lfoot -22.6573 2.68334
ltoes -3.87185
61
root -8.00693 27.3857 -0.221458 -82.4214 89.3443 -86.9148
lowerback -5.4834 -0.77078 -2.38149
upperback 0.828577 -0.87847 0.373664
thorax 3.97488 -0.494123 1.64525
lowerneck -10.0089 0.500726 2.75505
upperneck 17.2274 0.645782 -1.44323
head 6.92269 0.434284 -0.8566
rclavicle -2.96935e-015 8.54774e-015
rhumerus -31.0709 -10.5587 -83.1253
rradius 21.3296
rwrist 4.86192
rhand -22.1564 43.9526
rfingers 7.12502
rthumb 4.25776 14.0154
lclavicle -2.96935e-015 8.54774e-015
lhumerus -20.7437 13.5317 81.8082
lradius 13.3253
lwrist -15.3254
lhand -14.0824 42.4059
lfingers 7.12502
lthumb 12.0496 72.039
rfemur -8.72892 2.89721 18.2133
rtibia 24.4734
rfoot -17.3531 -13.0168
rtoes -9.54808
lfemur -10.1041 0.10694 -17.1699
ltibia 25.1057
lfoot -22.6659 3.09536
ltoes -3.89706
62
root -7.99863 27.3862 -0.215813 -127.069 89.1403 -131.47
lowerback -5.50534 -1.01468 -2.48413
upperback 0.876209 -1.1983 0.436382
thorax 4.05549 -0.657515 1.73813
lowerneck -9.93008 0.474729 2.7174
upperneck 17.0905 0.610659 -1.41971
head 6.86373 0.415414 -0.84576
rclavicle 1.86361e-015 1.59028e-015
rhumerus -31.0148 -10.4333 -83.1202
rradius 21.2883
rwrist 4.87632
rhand -21.6407 43.8891
rfingers 7.12502
rthumb 4.7557 13.9625
lclavicle 1.86361e-015 1.59028e-015
lhumerus -20.8453 13.928 81.6649
lradius 13.2445
lwrist -15.4661
lhand -13.9535 42.4835
lfingers 7.12502
lthumb 12.174 72.1092
rfemur -8.44441 3.17597 18.3208
rtibia 24.4795
rfoot -17.5214 -13.4522
rtoes -7.31942
lfemur -10.0557 0.238556 -17.064
ltibia 25.0856
lfoot -22.5109 2.34718
ltoes -3.72043
63
root -8.00236 27.3918 -0.217726 -115.757 89.2999 -120.232
lowerback -5.59299 -0.945016 -2.47436
upperback 0.875655 -1.10229 0.402238
thorax 4.0987 -0.60964 1.70484
lowerneck -9.89135 0.464445 2.67522
upperneck 16.9358 0.586313 -1.34457
head 6.80639 0.405162 -0.816541
rclavicle -4.44781e-015 -1.0138e-014
rhumerus -30.9964 -10.431 -83.1512
rradius 21.3841
rwrist 4.89081
rhand -21.4241 43.6813
rfingers 7.12502
rthumb 4.96481 13.7595
lclavicle -4.44781e-015 -1.0138e-014
lhumerus -20.8528 14.132 81.5455
lradius 13.213
lwrist -15.5342
lhand -13.9303 42.7529
lfingers 7.12502
lthumb 12.1963 72.3773
rfemur -8.58464 3.2462 18.2027
rtibia 24.4893
rfoot -17.8126 -12.9354
rtoes -4.99477
lfemur -10.1143 0.0650965 -17.1547
ltibia 25.0683
lfoot -22.5762 2.68823
ltoes -3.52968
